<svg xmlns="http://www.w3.org/2000/svg" xml:space="preserve" width="2048" height="2048" style="shape-rendering:geometricPrecision;text-rendering:geometricPrecision;image-rendering:optimizeQuality;fill-rule:evenodd;clip-rule:evenodd"><defs><style>.fil1{fill:#424242;fill-rule:nonzero}</style></defs><g id="Layer_x0020_1"><path d="m682.674 908.668-.145-.097c-14.662 46.721-16.838 131.091-22.552 182.091-1.823 16.271 2.991 32.505 13.22 45.266 10.248 12.789 24.977 20.89 41.27 22.685 16.28 1.795 32.533-2.978 45.305-13.215 12.8-10.26 20.863-25.012 22.689-41.308l16.727-149.294 62.315-63.586-.88 51.662c-.64 37.53-1.228 75.064-1.489 112.599-1.565 223.754-46.93 439.933-84.878 661.693-.032.228-.064.456-.098.681-5.11 33.182 13.52 64.175 46.905 71.68 50.074 11.262 68.922-26.276 77.988-66.321l.123.026 88.878-384.103 80.355 91.605-42.93 290.713c-4.955 33.553 18.563 65 52.09 69.903 33.642 4.919 64.972-18.51 69.935-52.114 8.56-57.966 55.06-293.541 45.952-337.014-1.7-8.113-4.955-15.783-9.689-22.594l-128.528-184.9 11.021-309.249 104.205 84c12.547 10.114 27.99 18.81 44.54 18.81 16.45 0 32.031-6.456 43.664-18.089 11.633-11.634 18.089-27.213 18.089-43.663 0-16.45-6.458-32.03-18.09-43.663l-209.1-209.103c-26.225-26.226-52.974-38.631-93.331-32.634-25.995 3.864-48.52 18.859-66.711 37.269-59.483 60.136-171.53 159.626-206.85 230.263z" style="fill:#424242"/><path class="fil1" d="M1078.55 352.581c12.477 13.3 22.528 28.827 29.454 45.882a148.598 148.598 0 0 1 10.936 56.025c0 41.174-16.692 78.453-43.68 105.439-26.986 26.987-64.267 43.68-105.44 43.68s-78.452-16.693-105.438-43.68c-26.986-26.986-43.679-64.266-43.679-105.44 0-19.685 3.866-38.559 10.884-55.899 7.208-17.814 17.86-33.992 31.15-47.736l-.064-.062c7.91-8.172 19.122-11.22 29.494-9.08 25.773 3.469 51.649 5.2 77.405 5.172 26.298-.03 52.974-1.906 79.798-5.65l-.011-.074c11.461-1.6 22.352 3.084 29.19 11.423zm-29.797 69.882a85.671 85.671 0 0 0-8.405-15.757 649.557 649.557 0 0 1-70.776 3.927c-23.725.026-47.235-1.23-70.399-3.753a85.95 85.95 0 0 0-8.335 15.709c-3.955 9.77-6.133 20.537-6.133 31.899 0 23.507 9.527 44.788 24.927 60.189 15.4 15.4 36.682 24.928 60.188 24.928 23.507 0 44.79-9.528 60.19-24.928 15.402-15.4 24.929-36.682 24.929-60.19 0-11.397-2.198-22.205-6.186-32.024z"/><path class="fil1" d="M1039.49 378.025c8.698 15.325 28.175 20.698 43.5 12s20.698-28.175 12-43.5L1042.343 254l.063-.076c-6.482-11.39-18.902-17.283-31.152-16.005l-88.285 1.329-.106-.12c-12.778.192-23.693 7.85-28.657 18.756l-49.668 88.891c-8.56 15.395-3.019 34.816 12.376 43.375 15.394 8.56 34.815 3.02 43.375-12.375 63.852-1.846 81.752-20.117 139.2.25z"/><path class="fil1" d="M786.434 316.876c-16.707-5.66-34.84 3.294-40.5 20-5.66 16.708 3.294 34.841 20 40.5 64.91 22.155 133.642 33.388 202.896 33.388 68.472 0 137.79-11.029 204.764-33.387 16.707-5.592 25.716-23.67 20.125-40.376-5.592-16.707-23.67-25.716-40.376-20.125-59.952 20.014-122.424 29.887-184.513 29.887-62.504 0-124.291-10.056-182.395-29.887zM1246.12 1290.62l-21.843 9.75-90.183-201.299c-.311-.567-.603-1.15-.872-1.75-5.419-12.096-.006-26.296 12.09-31.715l9.812 21.902-9.75-21.843 288.347-129.182c.567-.31 1.15-.603 1.75-.872 12.096-5.419 26.297-.006 31.716 12.09l-21.903 9.812 21.844-9.75 90.183 201.3c.31.566.602 1.15.871 1.75 5.42 12.096.006 26.296-12.09 31.715l-9.812-21.903 9.75 21.844-288.347 129.182c-.567.31-1.15.602-1.75.871-12.096 5.42-26.297.006-31.715-12.09l21.902-9.812z"/><path class="fil1" d="M1338 1005.56c3.59 8.042 13.02 11.652 21.061 8.062 8.043-3.59 11.652-13.02 8.063-21.061l-14.524-32.42c-5.17-11.543-14.543-19.903-25.472-24.069-10.92-4.162-23.463-4.167-34.978.992l-50.312 22.54c-11.543 5.173-19.904 14.543-24.07 25.472-4.162 10.92-4.165 23.462.992 34.977l14.526 32.42c3.589 8.043 13.019 11.652 21.061 8.063 8.042-3.59 11.652-13.02 8.062-21.062l-14.525-32.42c-1.541-3.441-1.519-7.25-.24-10.604 1.275-3.347 3.777-6.191 7.193-7.722l50.312-22.54c3.441-1.541 7.25-1.519 10.605-.24 3.347 1.275 6.192 3.778 7.722 7.193l14.524 32.42z"/></g><path style="fill:none" d="M0 0h2048v2048H0z"/></svg>