<svg xmlns="http://www.w3.org/2000/svg" xml:space="preserve" width="2048" height="2048" style="shape-rendering:geometricPrecision;text-rendering:geometricPrecision;image-rendering:optimizeQuality;fill-rule:evenodd;clip-rule:evenodd"><defs><style>.fil0{fill:#424242;fill-rule:nonzero}</style></defs><g id="Layer_x0020_1"><path class="fil0" d="m282.946 1542.13-.668-2.02.429 1.3zM397.732 1022.44c-.478.215-.958.415-1.443.6l3.902 1.7c-.516-.391-1.416-1.251-2.459-2.3z"/><path class="fil0" d="M370.259 975.209 556.23 838.972c20.628-15.13 43.236-23.835 66.285-23.296 22.148.516 43.496 9.155 62.498 28.156L822.72 981.54l168.702-33.74c31.094-6.193 54.662 7.286 68.062 27.877 4.975 7.647 8.393 16.132 10.115 24.777a70.964 70.964 0 0 1 .16 26.723c-4.489 24.175-21.097 45.674-52.19 51.87l-202.728 40.544-.016-.084c-6.127 1.067-20.894-.13-33.302-3.712-8.628-2.487-17.505-6.138-24.202-11.028a27.574 27.574 0 0 1-3.928-3.262l.056-.057-3.176-3.175a27.496 27.496 0 0 1-1.546-1.434l.002-.002-35.46-35.46 14.763 169.034.434.292a27.603 27.603 0 0 1 3.066 2.216l-.074.09 166.719 138.86c4.664 1.912 8.92 5.17 12.783 9.499 2.536 2.841 5.043 6.496 7.33 10.374 3.421 5.797 6.86 13.433 8.997 19.296a27.567 27.567 0 0 1 1.845 5.36l-.124.03.001.003.089-.021 65.005 278.91c4.186 17.967.686 35.938-8.355 50.467-8.707 13.999-22.556 24.795-39.62 29.308a27.26 27.26 0 0 1-3.851.9c-17.33 3.523-34.557-.04-48.578-8.765-13.996-8.707-24.791-22.552-29.307-39.614a27.205 27.205 0 0 1-.738-2.935l-70.487-252.601-129.623-89.99-29.548 134.978a28.1 28.1 0 0 1-.498 2.28l-.061-.017a66.544 66.544 0 0 1-18.057 30.894 67.315 67.315 0 0 1-29.24 16.637c-.348.113-.698.221-1.053.322l-.012-.044-.33.083-267.967 75.381c-.658.234-1.33.443-2.01.626-16.996 5.205-34.61 3.226-49.496-4.264-14.82-7.455-26.874-20.384-32.854-37.112a27.163 27.163 0 0 1-.974-2.938c-5.209-16.998-3.23-34.619 4.261-49.51 7.483-14.868 20.475-26.958 37.289-32.913.415-.16.836-.313 1.263-.455l.006.02.087-.03.032.097 221.789-73.867 27.554-136.553a89.859 89.859 0 0 1-3.024-10.155 88.952 88.952 0 0 1-2.384-20.368h.002c0-.307.003-.616.014-.927l.093.004 8.369-248.162-48.824 35.765 7.614 171.956c1.365 31.678-15.485 52.874-37.785 62.922-8.136 3.663-17.05 5.706-26.033 6.093-8.917.384-17.954-.89-26.401-3.85-23.117-8.103-41.755-27.767-43.12-59.415l-9.053-204.474 1.675-.072c-.553-9.792 1.085-21.815 5.507-31.996 3.801-8.748 9.179-17.808 15.98-24.434a27.61 27.61 0 0 1 3.868-3.433l.036.051zM692.869 656.258c-11.031-11.031-26.28-17.857-43.12-17.857-16.842 0-32.09 6.824-43.122 17.857-11.032 11.033-17.857 26.28-17.857 43.12 0 16.842 6.826 32.09 17.857 43.12 11.033 11.033 26.28 17.859 43.121 17.859s32.09-6.826 43.121-17.857c11.033-11.033 17.858-26.28 17.858-43.121s-6.825-32.088-17.858-43.121z"/><path class="fil0" d="M649.749 598.252c27.921 0 53.205 11.32 71.505 29.62 18.301 18.302 29.622 43.585 29.622 71.506s-11.32 53.204-29.622 71.505c-18.3 18.3-43.584 29.621-71.505 29.621-27.921 0-53.204-11.32-71.505-29.622-18.3-18.3-29.621-43.583-29.621-71.504 0-27.921 11.32-53.204 29.62-71.505 18.302-18.3 43.585-29.621 71.506-29.621zM989.198 1187.23l-.669-2.02.429 1.3zM1103.98 667.537c-.477.215-.96.415-1.443.6l3.9 1.7c-.516-.391-1.415-1.251-2.457-2.3z"/><path class="fil0" d="m1076.51 620.308 185.971-136.237c20.628-15.13 43.236-23.835 66.285-23.296 22.148.516 43.496 9.155 62.498 28.156l137.707 137.707 168.702-33.74c31.095-6.193 54.664 7.287 68.062 27.877 4.975 7.647 8.393 16.132 10.115 24.777a70.964 70.964 0 0 1 .16 26.723c-4.489 24.175-21.097 45.674-52.19 51.87l-202.728 40.544-.016-.084c-6.127 1.066-20.894-.13-33.302-3.712-8.628-2.487-17.505-6.138-24.202-11.028a27.574 27.574 0 0 1-3.928-3.262l.056-.057-3.176-3.175a27.496 27.496 0 0 1-1.546-1.434l.002-.002-35.46-35.46 14.763 169.034.434.292a27.603 27.603 0 0 1 3.066 2.216l-.074.09 166.715 138.856c4.665 1.912 8.922 5.171 12.786 9.502 2.536 2.843 5.043 6.496 7.331 10.375 3.42 5.797 6.859 13.433 8.997 19.296a27.567 27.567 0 0 1 1.845 5.36l-.124.03v.003l.09-.022 65.005 278.91c4.186 17.967.685 35.939-8.355 50.468-8.707 13.997-22.557 24.795-39.62 29.308-1.247.388-2.534.69-3.85.898-17.33 3.523-34.559-.038-48.58-8.763-13.994-8.706-24.79-22.552-29.306-39.615a27.205 27.205 0 0 1-.738-2.935l-70.487-252.6-129.623-89.991-29.548 134.979a28.1 28.1 0 0 1-.499 2.28l-.061-.017c-3.216 12.188-9.61 22.703-18.057 30.894a67.315 67.315 0 0 1-29.24 16.637c-.347.112-.697.22-1.053.321l-.011-.043-.33.082-267.968 75.382c-.658.234-1.33.443-2.01.626-16.995 5.205-34.609 3.225-49.495-4.264-14.82-7.455-26.874-20.385-32.854-37.113a27.163 27.163 0 0 1-.975-2.937c-5.208-16.998-3.23-34.62 4.262-49.51 7.482-14.868 20.474-26.958 37.289-32.913.414-.16.836-.313 1.262-.455l.006.019.087-.03.032.097 221.79-73.866 27.553-136.553a89.859 89.859 0 0 1-3.023-10.155 88.952 88.952 0 0 1-2.385-20.368h.002c0-.307.004-.617.015-.927l.093.003 8.368-248.162-48.823 35.765 7.613 171.956c1.365 31.677-15.484 52.875-37.785 62.922-8.135 3.664-17.049 5.706-26.032 6.094-8.916.383-17.954-.89-26.402-3.85-23.116-8.103-41.755-27.767-43.12-59.415l-9.052-204.474 1.674-.072c-.552-9.793 1.086-21.815 5.508-31.996 3.8-8.749 9.178-17.809 15.98-24.435a27.61 27.61 0 0 1 3.867-3.432l.037.05zM1399.12 301.357c-11.031-11.031-26.28-17.857-43.12-17.857-16.842 0-32.09 6.826-43.12 17.857-11.033 11.033-17.859 26.28-17.859 43.12 0 16.842 6.826 32.09 17.858 43.12 11.032 11.033 26.279 17.859 43.12 17.859 16.841 0 32.09-6.826 43.121-17.857 11.033-11.033 17.858-26.28 17.858-43.121s-6.825-32.088-17.858-43.121z"/><path class="fil0" d="M1356 243.352c27.921 0 53.205 11.32 71.505 29.62 18.301 18.302 29.622 43.585 29.622 71.506s-11.32 53.204-29.622 71.505c-18.3 18.3-43.584 29.621-71.505 29.621-27.922 0-53.204-11.32-71.504-29.622-18.301-18.3-29.622-43.581-29.622-71.504 0-27.921 11.32-53.204 29.622-71.505 18.3-18.3 43.583-29.621 71.504-29.621z"/></g><path style="fill:none" d="M0 0h2048v2048H0z"/></svg>