<?xml version="1.0" ?><svg height="64" viewBox="0 0 64 64" width="64" xmlns="http://www.w3.org/2000/svg"><title/><g><path d="M52.113,24.323a.926.926,0,0,1-.273-.66V15.094a2.937,2.937,0,0,0-2.934-2.934H40.337a.932.932,0,0,1-.661-.273l-5.6-5.6a2.939,2.939,0,0,0-4.149,0l-5.6,5.6a.926.926,0,0,1-.66.273H15.094a2.937,2.937,0,0,0-2.934,2.934v8.569a.941.941,0,0,1-.273.66l-5.6,5.6a2.933,2.933,0,0,0,0,4.148l5.6,5.6a.938.938,0,0,1,.273.66v8.569a2.937,2.937,0,0,0,2.934,2.934h8.569a.926.926,0,0,1,.66.273l5.6,5.6a2.937,2.937,0,0,0,4.149,0l5.6-5.6a.932.932,0,0,1,.661-.273h8.569a2.937,2.937,0,0,0,2.934-2.934V40.337a.943.943,0,0,1,.273-.66h0l5.6-5.6a2.932,2.932,0,0,0,0-4.149ZM56.3,32.66l-5.6,5.6a2.952,2.952,0,0,0-.859,2.074v8.569a.935.935,0,0,1-.934.934H40.337a2.917,2.917,0,0,0-2.075.859l-5.6,5.6a.933.933,0,0,1-1.32,0l-5.6-5.6a2.913,2.913,0,0,0-2.074-.859H15.094a.935.935,0,0,1-.934-.934V40.337a2.953,2.953,0,0,0-.859-2.074l-5.6-5.6a.934.934,0,0,1,0-1.32l5.6-5.6a2.916,2.916,0,0,0,.859-2.074V15.094a.935.935,0,0,1,.934-.934h8.569a2.913,2.913,0,0,0,2.074-.859l5.6-5.6a.934.934,0,0,1,1.32,0l5.6,5.6a2.917,2.917,0,0,0,2.075.859h8.569a.935.935,0,0,1,.934.934v8.569a2.913,2.913,0,0,0,.859,2.074l5.6,5.6a.932.932,0,0,1,0,1.32Z"/><path d="M47.021,26.151a.425.425,0,0,1-.124-.3V19.53A2.429,2.429,0,0,0,44.47,17.1H38.15a.426.426,0,0,1-.3-.125l-4.133-4.133a2.429,2.429,0,0,0-3.431,0L26.1,17.023a.424.424,0,0,1-.244.081H19.53A2.428,2.428,0,0,0,17.1,19.53v6.321a.5.5,0,0,1-.125.3l-4.133,4.132a2.425,2.425,0,0,0,0,3.431l4.133,4.133a.426.426,0,0,1,.125.3v6.32A2.429,2.429,0,0,0,19.53,46.9h6.321a.427.427,0,0,1,.3.125l4.132,4.131a2.427,2.427,0,0,0,3.431,0l4.133-4.131a.422.422,0,0,1,.3-.125h6.32A2.444,2.444,0,0,0,46.9,44.47V38.15a.423.423,0,0,1,.124-.3l4.132-4.132a2.426,2.426,0,0,0,0-3.432Zm2.718,6.15-4.132,4.133a2.41,2.41,0,0,0-.71,1.716v6.32a.421.421,0,0,1-.161.325.409.409,0,0,1-.266.1H38.15a2.408,2.408,0,0,0-1.716.711L32.3,49.739a.428.428,0,0,1-.6,0l-4.132-4.131a2.406,2.406,0,0,0-1.715-.711H19.53a.427.427,0,0,1-.426-.427V38.15a2.412,2.412,0,0,0-.711-1.716L14.26,32.3a.426.426,0,0,1,0-.6l4.133-4.132a2.154,2.154,0,0,0,.18-.212,2.434,2.434,0,0,0,.531-1.5V19.53a.426.426,0,0,1,.426-.426h6.321a2.408,2.408,0,0,0,1.4-.447,2.33,2.33,0,0,0,.319-.264L31.7,14.26a.427.427,0,0,1,.6,0l4.133,4.133a2.412,2.412,0,0,0,1.716.711h6.32a.427.427,0,0,1,.427.426v6.321a2.44,2.44,0,0,0,.71,1.715L49.739,31.7a.426.426,0,0,1,0,.6Z"/><path d="M27.69,26.517a1,1,0,0,0-1.992.174c.237,2.744-.054,6.953-1.445,7.716a1.911,1.911,0,0,1-2,.114c-.393-.325-.449-1.037-.154-1.955a1,1,0,1,0-1.9-.612c-.794,2.469.285,3.7.785,4.109a3.171,3.171,0,0,0,2.043.69,4.578,4.578,0,0,0,2.189-.593C28.228,34.506,27.805,27.837,27.69,26.517Z"/><path d="M43.781,31.88a5.28,5.28,0,0,1-1.527-.711c-.543-.414-2.451-1.733-4.214-1.349a2.745,2.745,0,0,0-1.861,1.46,1,1,0,0,0,1.766.939.742.742,0,0,1,.523-.445,4.03,4.03,0,0,1,2.573.985,5.279,5.279,0,0,0,.835.51,11.259,11.259,0,0,1-4.636,1.555,2.344,2.344,0,0,1-1.73-.309c-.383-.39-.283-1.408-.2-2.226.02-.2.039-.406.053-.6a30.412,30.412,0,0,1,1.2-4.99,1,1,0,0,0-1.9-.618c-.033.1-.582,1.8-.957,3.465a10.731,10.731,0,0,0-3.805-3.037,1,1,0,0,0-.83,1.819c.04.018,3.94,1.872,3.623,4.409a3.264,3.264,0,0,1-1.766,2.273c-.234.087-.942.349-2.014-.619a1,1,0,1,0-1.341,1.483A4.2,4.2,0,0,0,30.41,37.1a3.466,3.466,0,0,0,1.2-.216A4.693,4.693,0,0,0,33.642,35.3a2.657,2.657,0,0,0,.442.617,3.574,3.574,0,0,0,2.683.928c.2,0,.412-.009.632-.026a13.845,13.845,0,0,0,6.756-2.646,1.3,1.3,0,0,0-.374-2.292Z"/></g></svg>