<?xml version="1.0" encoding="UTF-8" standalone="no"?>
<svg
   sodipodi:docname="12 -  Salad.svg"
   inkscape:version="1.1.1 (1:1.1+202109281949+c3084ef5ed)"
   id="svg831"
   version="1.1"
   viewBox="0 0 22.577778 22.577778"
   height="64pt"
   width="64pt"
   inkscape:export-filename="/media/taufikramadhan/Data/Tr Design Studio/Project Design/TR Creative Design/Icon Design/Project Hiring/Icon Icons/010 - Food/Send/2 - Solid/12 -  Salad.png"
   inkscape:export-xdpi="576"
   inkscape:export-ydpi="576"
   xmlns:inkscape="http://www.inkscape.org/namespaces/inkscape"
   xmlns:sodipodi="http://sodipodi.sourceforge.net/DTD/sodipodi-0.dtd"
   xmlns="http://www.w3.org/2000/svg"
   xmlns:svg="http://www.w3.org/2000/svg"
   xmlns:rdf="http://www.w3.org/1999/02/22-rdf-syntax-ns#"
   xmlns:cc="http://creativecommons.org/ns#"
   xmlns:dc="http://purl.org/dc/elements/1.1/">
  <defs
     id="defs825">
    <pattern
       y="0"
       x="0"
       height="6"
       width="6"
       patternUnits="userSpaceOnUse"
       id="EMFhbasepattern" />
    <pattern
       y="0"
       x="0"
       height="6"
       width="6"
       patternUnits="userSpaceOnUse"
       id="EMFhbasepattern-9" />
    <pattern
       y="0"
       x="0"
       height="6"
       width="6"
       patternUnits="userSpaceOnUse"
       id="EMFhbasepattern-0" />
    <pattern
       y="0"
       x="0"
       height="6"
       width="6"
       patternUnits="userSpaceOnUse"
       id="EMFhbasepattern-7" />
    <pattern
       y="0"
       x="0"
       height="6"
       width="6"
       patternUnits="userSpaceOnUse"
       id="EMFhbasepattern-2" />
    <pattern
       y="0"
       x="0"
       height="6"
       width="6"
       patternUnits="userSpaceOnUse"
       id="EMFhbasepattern-98" />
    <pattern
       y="0"
       x="0"
       height="6"
       width="6"
       patternUnits="userSpaceOnUse"
       id="EMFhbasepattern-6" />
    <pattern
       y="0"
       x="0"
       height="6"
       width="6"
       patternUnits="userSpaceOnUse"
       id="EMFhbasepattern-01" />
    <pattern
       y="0"
       x="0"
       height="6"
       width="6"
       patternUnits="userSpaceOnUse"
       id="EMFhbasepattern-07" />
    <pattern
       y="0"
       x="0"
       height="6"
       width="6"
       patternUnits="userSpaceOnUse"
       id="EMFhbasepattern-8" />
    <pattern
       y="0"
       x="0"
       height="6"
       width="6"
       patternUnits="userSpaceOnUse"
       id="EMFhbasepattern-4" />
    <pattern
       y="0"
       x="0"
       height="6"
       width="6"
       patternUnits="userSpaceOnUse"
       id="EMFhbasepattern-40" />
    <pattern
       y="0"
       x="0"
       height="6"
       width="6"
       patternUnits="userSpaceOnUse"
       id="EMFhbasepattern-08" />
    <pattern
       y="0"
       x="0"
       height="6"
       width="6"
       patternUnits="userSpaceOnUse"
       id="EMFhbasepattern-04" />
    <pattern
       y="0"
       x="0"
       height="6"
       width="6"
       patternUnits="userSpaceOnUse"
       id="EMFhbasepattern-014" />
    <pattern
       y="0"
       x="0"
       height="6"
       width="6"
       patternUnits="userSpaceOnUse"
       id="EMFhbasepattern-27" />
    <pattern
       y="0"
       x="0"
       height="6"
       width="6"
       patternUnits="userSpaceOnUse"
       id="EMFhbasepattern-09" />
    <pattern
       y="0"
       x="0"
       height="6"
       width="6"
       patternUnits="userSpaceOnUse"
       id="EMFhbasepattern-5" />
    <pattern
       y="0"
       x="0"
       height="6"
       width="6"
       patternUnits="userSpaceOnUse"
       id="EMFhbasepattern-018" />
  </defs>
  <sodipodi:namedview
     inkscape:document-rotation="0"
     inkscape:snap-global="true"
     inkscape:snap-nodes="false"
     inkscape:bbox-nodes="true"
     inkscape:snap-bbox="true"
     showguides="true"
     inkscape:snap-midpoints="true"
     inkscape:snap-smooth-nodes="true"
     inkscape:snap-intersection-paths="true"
     inkscape:object-paths="true"
     inkscape:showpageshadow="false"
     inkscape:pagecheckerboard="true"
     inkscape:window-maximized="1"
     inkscape:window-y="31"
     inkscape:window-x="0"
     inkscape:window-height="705"
     inkscape:window-width="1366"
     units="pt"
     showgrid="false"
     inkscape:current-layer="layer1"
     inkscape:document-units="pt"
     inkscape:cy="42.666666"
     inkscape:cx="33.910127"
     inkscape:zoom="5.8242188"
     inkscape:pageshadow="2"
     inkscape:pageopacity="0.0"
     borderopacity="1.0"
     bordercolor="#666666"
     pagecolor="#ffffff"
     id="base">
    <inkscape:grid
       id="grid1378"
       type="xygrid" />
    <sodipodi:guide
       inkscape:locked="false"
       id="guide1380"
       orientation="78.000048,0"
       position="0.97013831,21.607643" />
    <sodipodi:guide
       inkscape:locked="false"
       id="guide1382"
       orientation="0,78.000005"
       position="0.97013831,0.97013129" />
    <sodipodi:guide
       inkscape:locked="false"
       id="guide1384"
       orientation="-78.000048,0"
       position="21.607639,0.97013129" />
    <sodipodi:guide
       inkscape:locked="false"
       id="guide1386"
       orientation="0,-78.000005"
       position="21.607639,21.607643" />
  </sodipodi:namedview>
  <metadata
     id="metadata828">
    <rdf:RDF>
      <cc:Work
         rdf:about="">
        <dc:format>image/svg+xml</dc:format>
        <dc:type
           rdf:resource="http://purl.org/dc/dcmitype/StillImage" />
      </cc:Work>
    </rdf:RDF>
  </metadata>
  <g
     transform="translate(0,-274.42223)"
     id="layer1"
     inkscape:groupmode="layer"
     inkscape:label="Icon">
    <path
       id="path27985"
       style="color:#000000;display:inline;fill:#000000;stroke-width:1.25593;stroke-linecap:round;stroke-linejoin:round;stroke-miterlimit:1.5;-inkscape-stroke:none"
       d="m 15.424782,275.71662 c -0.866769,0.009 -1.667204,0.50648 -1.933436,1.30389 l 0.214829,0.56204 c 0.06572,0.17137 -0.02007,0.36332 -0.191464,0.429 -0.171384,0.0657 -0.363316,-0.0201 -0.429002,-0.19145 l -0.220019,-0.57503 c -0.143563,-0.36978 -0.676202,-0.35609 -0.930697,-0.28817 -0.219324,0.0588 -0.422608,0.25035 -0.586065,0.55686 -0.163471,0.30653 -0.272765,0.71258 -0.308936,1.10398 -0.01143,0.11354 -0.08027,0.21326 -0.182375,0.26416 l 6.64e-4,6.6e-4 c -0.847565,0.5029 -1.1926013,1.57833 -1.160448,2.6519 0.030505,1.01891 0.45198,1.97542 0.863848,2.28326 h 0.365396 c 0.20019,-0.37059 0.404687,-0.73815 0.610733,-1.10463 l -0.38033,-1.41227 c -0.04578,-0.17661 0.05938,-0.35709 0.235596,-0.40435 0.02582,-0.008 0.05241,-0.0113 0.07919,-0.0113 0.152691,-0.004 0.288177,0.0973 0.328405,0.24468 l 0.20444,0.7639 c 0.291207,-0.5077 0.583567,-1.01408 0.87748,-1.5187 l -0.378379,-1.40644 c -0.04742,-0.17745 0.05809,-0.35971 0.235593,-0.40693 0.02605,-0.008 0.05285,-0.0113 0.07983,-0.0113 0.153008,-0.003 0.28833,0.0987 0.327754,0.24663 l 0.205743,0.7691 c 0.244781,-0.42168 0.48847,-0.84381 0.728848,-1.2669 0.09052,-0.16009 0.29384,-0.21623 0.453669,-0.12522 0.160491,0.0906 0.216685,0.29434 0.125267,0.45431 -0.240513,0.42333 -0.483409,0.84471 -0.727553,1.26495 l 0.759357,-0.20314 c 0.177444,-0.0475 0.35971,0.0582 0.406933,0.2356 0.04744,0.17744 -0.05809,0.35971 -0.235594,0.40693 l -1.40643,0.37643 c -0.29559,0.50687 -0.589856,1.01375 -0.88137,1.52131 l 0.769738,-0.20704 c 0.177249,-0.0475 0.359426,0.0578 0.406938,0.23495 0.04784,0.17765 -0.05777,0.36037 -0.235595,0.40759 l -1.403186,0.37513 c -0.145558,0.25859 -0.289884,0.51757 -0.432248,0.77753 h 2.345564 c 0.382313,-0.11593 0.895785,-0.45137 1.258453,-0.85347 0.375914,-0.41672 0.564803,-0.87732 0.488065,-1.18706 -0.03307,-0.13563 0.02217,-0.27746 0.138243,-0.35502 l -6.65e-4,-6.6e-4 c 0.319386,-0.22723 0.614714,-0.52597 0.797,-0.81971 0.183076,-0.29375 0.24285,-0.56351 0.184322,-0.78207 -0.06828,-0.25483 -0.261877,-0.74349 -0.714572,-0.66136 l -0.610085,0.0967 c -0.181614,0.0288 -0.352061,-0.0955 -0.380326,-0.27713 -0.02875,-0.18162 0.09544,-0.35206 0.277131,-0.38034 l 0.58996,-0.0922 c 0.669856,-0.74981 0.586944,-1.94494 -0.128504,-2.73823 -0.167341,-0.0355 -0.335773,-0.0522 -0.501695,-0.0506 z m -6.3694992,1.25261 c -0.6520739,0.008 -1.3024631,0.14227 -1.9133154,0.40435 -1.1169105,0.47922 -2.0537782,1.42041 -2.58765,2.51301 l 1.4310928,0.8262 c 0.295075,-0.72916 0.8370449,-1.33806 1.5368836,-1.71277 0.7598286,-0.40684 1.6452064,-0.50497 2.4734221,-0.28168 0.1210361,-0.12069 0.2535271,-0.23248 0.4010951,-0.331 0.05286,-0.39828 0.16375,-0.79782 0.343331,-1.14811 -0.54605,-0.18734 -1.1154448,-0.27706 -1.6848592,-0.27 z m 0.069447,2.24237 c -0.4545985,-9.9e-4 -0.9072598,0.10977 -1.315569,0.3284 -0.5993879,0.32094 -1.0552292,0.84931 -1.2883072,1.48237 l 2.6272405,1.51676 c -0.06659,-0.3159 -0.1048039,-0.64861 -0.1148753,-0.98522 -0.023659,-0.79106 0.1315307,-1.6283 0.5451766,-2.30402 -0.1503953,-0.0254 -0.302133,-0.0379 -0.4536647,-0.0383 z m -6.6394931,0.24923 c -0.2095079,0.12855 -0.3801901,0.32209 -0.4724894,0.57957 -0.3436339,0.95879 -0.5913529,2.34209 0.058411,3.77731 h 2.487701 c -0.5220885,-0.62823 -0.7498562,-1.27806 -0.7872632,-1.86918 -0.039065,-0.61738 0.1161751,-1.15915 0.3043926,-1.56934 z m 15.2812173,0.0126 -0.289465,0.0149 c 0.174956,0.49564 0.0234,1.09196 -0.206387,1.46939 -0.11581,0.18586 -0.25711,0.36101 -0.414078,0.52246 0.389264,0.12032 0.744174,0.3283 1.068291,0.59711 0.648017,-0.12802 1.39155,-0.0185 1.953554,0.33748 0.109969,0.0697 0.213114,0.14752 0.309583,0.23236 0.232002,-0.80032 0.04839,-1.67052 -0.502991,-2.30988 -0.479934,-0.55649 -1.196161,-0.86051 -1.918507,-0.86384 z m -13.1108885,1.24092 c -0.1388845,0.32458 -0.2479284,0.74149 -0.2193706,1.1929 0.036819,0.5818 0.2854284,1.23686 1.0455759,1.91073 h 4.175156 C 9.589115,283.71683 9.5266155,283.609 9.4700083,283.49472 Z m 11.6402035,1.32466 c -0.02479,0.49256 -0.165535,0.98277 -0.516619,1.37203 -0.131192,0.14545 -0.273884,0.28208 -0.423811,0.40694 h 2.724594 c -0.194515,-0.91074 -0.864433,-1.67538 -1.784164,-1.77897 z m -10.2448063,0.0176 a 0.33229934,0.33229934 0 0 1 0.1661496,0.0448 0.33229934,0.33229934 0 0 1 0.1207179,0.45365 L 6.158701,282.8692 a 0.33229934,0.33229934 0 0 1 -0.4543161,0.1227 0.33229934,0.33229934 0 0 1 -0.1226645,-0.45432 l 0.1817244,-0.31347 a 0.33229934,0.33229934 0 0 1 0.2875186,-0.16745 z m 12.4086453,0.65941 c 0.202384,0.32799 0.341115,0.6985 0.399799,1.09231 l 1.217564,-0.008 c -0.14594,-0.30564 -0.262612,-0.63948 -0.554265,-0.82426 -0.272984,-0.17291 -0.680296,-0.26078 -1.063098,-0.2609 z m -11.1839435,0.0494 a 0.33229934,0.33229934 0 0 1 0.1655016,0.0447 0.33229934,0.33229934 0 0 1 0.1226645,0.45367 l -0.1810765,0.31414 a 0.33229934,0.33229934 0 0 1 -0.4543161,0.12006 0.33229934,0.33229934 0 0 1 -0.1226645,-0.45366 l 0.1817277,-0.31414 a 0.33229934,0.33229934 0 0 1 0.2881632,-0.16484 z m -6.2688997,1.71732 c -0.0413315,0.14168 -0.0498907,0.2947 -0.0142888,0.44912 l 0.1603078,0.69639 h 7.2404863 a 0.33229934,0.33229934 0 0 1 0.3310032,0.33425 0.33229934,0.33229934 0 0 1 -0.3310032,0.331 H 1.3066017 l 1.4492663,6.28448 c 0.1773081,0.76833 0.8677759,1.31686 1.6563052,1.31686 H 18.165593 c 0.788535,0 1.476381,-0.54853 1.653706,-1.31686 l 1.451214,-6.28448 h -11.06712 a 0.33229934,0.33229934 0 0 1 -0.3335985,-0.331 0.33229934,0.33229934 0 0 1 0.3335985,-0.33425 h 11.220938 l 0.160956,-0.69639 c 0.03563,-0.15442 0.02705,-0.30744 -0.01429,-0.44912 z m 2.3183049,2.59283 h 0.3634521 a 0.33229934,0.33229934 0 0 1 0.3310031,0.33361 0.33229934,0.33229934 0 0 1 -0.3310031,0.33164 H 3.3250695 a 0.33229934,0.33229934 0 0 1 -0.331,-0.33164 0.33229934,0.33229934 0 0 1 0.3310002,-0.33361 z m 1.8107711,0 h 0.3602056 a 0.33229934,0.33229934 0 0 1 0.3335984,0.33361 0.33229934,0.33229934 0 0 1 -0.3335984,0.33164 H 5.1358406 a 0.33229934,0.33229934 0 0 1 -0.3335985,-0.33164 0.33229934,0.33229934 0 0 1 0.3335987,-0.33361 z m 1.8101232,0 h 0.3608536 a 0.33229934,0.33229934 0 0 1 0.3335984,0.33361 0.33229934,0.33229934 0 0 1 -0.3335984,0.33164 H 6.9459638 a 0.33229934,0.33229934 0 0 1 -0.3335985,-0.33164 0.33229934,0.33229934 0 0 1 0.3335987,-0.33361 z m -2.533781,4.70736 h 6.152076 a 0.33229934,0.33229934 0 0 1 0.333595,0.33165 0.33229934,0.33229934 0 0 1 -0.333595,0.33359 H 4.4121831 a 0.33229934,0.33229934 0 0 1 -0.3335984,-0.33359 0.33229934,0.33229934 0 0 1 0.3335983,-0.33165 z m -0.1473282,2.7843 c -0.1404462,0.56177 0.2820954,1.13838 0.870986,1.13838 H 17.442593 c 0.588894,0 1.01075,-0.57662 0.870338,-1.13838 z" />
  </g>
</svg>
