<svg version="1.1" id="Layer_1" xmlns="http://www.w3.org/2000/svg" xmlns:xlink="http://www.w3.org/1999/xlink" x="0px" y="0px"
	 width="100%" viewBox="0 0 496 496" enable-background="new 0 0 496 496" xml:space="preserve">
<path fill="white" opacity="1.000000" stroke="none" 
	d="
M335.218323,182.898773 
	C334.134857,180.306580 334.620575,178.393295 336.559326,176.834076 
	C338.819794,177.001022 339.539001,178.896194 340.460052,180.363998 
	C364.639984,218.897247 369.093719,259.118225 350.526855,301.194916 
	C332.756897,341.465637 301.527649,365.005798 258.937622,373.945679 
	C209.164459,384.393311 153.293045,358.804169 127.887466,314.301178 
	C121.909981,303.830444 117.186661,292.858734 114.148659,281.182617 
	C113.168526,277.415527 113.170662,273.935577 117.586494,271.773987 
	C120.175446,278.194977 120.196426,285.290833 123.836319,291.127991 
	C126.043907,291.297852 127.017426,289.731720 127.907471,288.468475 
	C131.456192,283.431610 134.878830,278.304138 138.265030,273.155548 
	C139.275116,271.619720 140.397202,269.664673 139.467468,267.996918 
	C136.984100,263.542267 137.150391,258.972412 137.230713,254.076675 
	C137.277695,251.211472 137.682693,249.390564 139.751114,247.724106 
	C143.900894,244.380722 148.061340,241.049484 152.158890,237.642868 
	C154.156860,235.981781 155.571976,236.511200 157.831131,237.715866 
	C164.365921,241.200485 169.119598,247.167831 171.437698,253.047501 
	C174.409424,260.585083 179.355972,265.335449 184.913391,270.214966 
	C186.925659,271.981781 186.120621,273.641632 184.547897,275.336395 
	C181.125885,279.024017 177.191116,283.317200 173.311935,285.086212 
	C165.581177,288.611542 157.762619,292.239166 149.765488,295.292999 
	C143.998688,297.495209 137.612335,297.908691 132.426514,301.873199 
	C129.940308,303.773834 129.458267,305.132629 131.079422,307.962097 
	C150.612396,342.054047 179.452957,363.225830 218.457779,368.657898 
	C264.686432,375.096008 302.499390,359.094421 331.670410,322.710968 
	C333.170135,320.840393 335.519958,319.133270 335.060059,316.318939 
	C334.547363,313.181427 335.541046,308.348267 331.655334,307.745422 
	C326.850281,306.999939 321.740845,308.519135 318.107544,312.408356 
	C316.625336,313.994965 315.663910,316.027832 312.775238,315.196472 
	C310.338318,310.053192 315.001801,303.950531 312.324829,299.869324 
	C309.759857,295.958862 310.492310,288.343292 302.270508,288.753723 
	C298.394440,297.638977 289.342590,293.576569 281.724884,295.757385 
	C283.523224,296.806335 284.721954,297.505554 286.100677,298.309723 
	C284.933868,301.844940 282.624390,304.102020 279.469452,305.378876 
	C276.391754,306.624451 273.174652,307.527588 270.012756,308.562744 
	C266.696869,309.648346 264.760406,311.762024 264.291534,315.356628 
	C263.656219,320.227417 261.382965,323.381683 255.994553,324.448792 
	C251.956879,325.248413 250.072174,329.872589 246.362701,331.779358 
	C244.322205,332.828217 242.657700,334.583588 240.416840,335.393433 
	C233.443146,337.913818 227.603912,333.985382 227.656006,326.789642 
	C227.680115,323.458984 227.842072,320.119537 227.659500,316.799622 
	C227.415604,312.364746 228.627151,308.558105 231.861145,305.494537 
	C234.563004,302.935059 235.088974,299.719269 234.594269,296.306091 
	C234.188431,293.505829 233.951538,290.972443 234.980316,288.077271 
	C236.188293,284.677734 232.534897,283.337067 230.429596,281.814148 
	C228.036499,280.083008 225.188889,278.924164 222.437393,277.755371 
	C215.188141,274.676056 212.242615,265.528656 214.963379,258.367432 
	C217.535645,251.597061 221.488770,247.773270 228.562820,246.467941 
	C231.197403,245.981796 232.772476,242.800079 236.137344,242.207245 
	C233.802399,238.354568 236.513550,235.771698 237.889679,232.911438 
	C238.762589,231.097137 240.263809,231.674561 241.767624,232.236404 
	C243.644806,232.937729 245.409210,235.340332 247.602478,233.355774 
	C249.861755,231.311523 248.041351,229.083847 247.037750,227.103287 
	C248.909760,225.527054 250.783005,226.539261 252.684723,226.281143 
	C251.615723,224.676834 249.222260,225.617416 248.273682,223.629776 
	C249.018204,222.054825 249.845215,220.305405 250.730713,218.432251 
	C249.905609,217.849182 249.483749,218.753311 248.979126,219.149979 
	C247.516205,220.299988 245.754456,220.957870 244.593277,219.276062 
	C243.267685,217.356125 244.828262,215.756058 246.376587,214.797760 
	C248.300797,213.606842 250.669556,213.197113 251.757767,210.757004 
	C252.292526,209.557861 253.707611,209.594864 254.874817,209.981766 
	C256.384186,210.482025 256.364441,211.788269 255.854233,212.852829 
	C254.193451,216.318024 256.790436,219.303421 256.815613,222.581772 
	C256.827728,224.164124 258.366974,224.656616 259.786163,224.610977 
	C262.147552,224.535019 264.513580,224.330688 265.647888,221.717148 
	C267.149353,218.257782 268.816864,217.521347 271.005341,221.678070 
	C271.092163,219.882339 270.930298,218.283630 269.396576,217.774780 
	C267.200745,217.046234 265.101349,216.669876 266.148376,213.530167 
	C267.124420,210.603333 268.032440,207.620560 271.907623,207.689240 
	C275.514404,207.753159 278.135254,206.063538 280.741486,203.750214 
	C287.351105,197.883408 298.256836,198.541290 304.158142,205.202133 
	C307.567993,209.050873 310.544220,213.283768 313.901489,217.581680 
	C315.040009,217.941772 315.379822,215.396179 316.990112,216.228867 
	C318.958221,217.033844 316.887970,219.080002 317.434021,219.548019 
	C323.741699,220.272980 329.292023,220.910904 334.842346,221.548828 
	C335.112396,220.972824 335.382446,220.396805 335.652466,219.820801 
	C337.173767,222.012924 338.695038,224.205048 340.617279,226.974915 
	C343.266266,222.559937 345.428009,219.385712 349.175201,217.524063 
	C351.761169,216.239319 350.383667,211.546738 347.174286,210.155823 
	C341.283691,207.602921 333.849365,211.128387 331.339386,217.665024 
	C327.022583,215.724670 326.223267,213.252350 329.728271,210.478775 
	C334.576447,206.642319 340.047455,203.819092 347.472809,206.797165 
	C344.325714,197.783096 340.064606,190.390121 335.218323,182.898773 
z"/>
<path fill="white" opacity="1.000000" stroke="none" 
	d="
M318.777283,159.173035 
	C320.165131,160.767960 321.586975,161.174393 322.857239,159.809738 
	C324.061462,158.516022 322.815948,157.312210 322.150116,156.249161 
	C319.001770,151.222672 315.788849,146.236664 312.534943,141.135880 
	C318.620758,138.786102 326.218262,140.030487 328.995636,144.699127 
	C333.932861,152.998367 339.710632,154.183716 348.782013,151.125519 
	C363.852631,146.044846 379.465515,142.572662 395.743164,138.182068 
	C391.829590,133.375824 390.607178,127.390648 384.018768,125.496162 
	C385.365784,121.719803 383.094177,119.032417 381.150787,116.155769 
	C375.835358,108.287750 370.602966,100.363464 365.372681,92.438347 
	C364.480743,91.086830 363.229675,89.859375 363.342896,88.036812 
	C371.638977,84.635872 380.471100,86.631104 385.894196,93.212242 
	C389.708435,97.840981 393.412933,102.560135 397.169128,107.236763 
	C399.197174,109.761780 400.675720,112.496284 405.045593,111.950073 
	C408.171936,111.559296 409.108643,115.292702 410.529327,117.708534 
	C412.009247,120.225029 409.693878,121.140999 408.560486,122.595802 
	C410.541840,126.845535 413.828247,129.998123 416.411011,133.644653 
	C418.128815,136.069931 420.298615,135.046921 422.286102,134.520889 
	C437.112854,130.596756 452.110596,129.567932 467.311707,131.647903 
	C468.457520,131.804688 469.617310,131.976624 470.718597,132.312134 
	C472.132202,132.742813 473.781586,133.087189 474.197205,134.791534 
	C474.682373,136.781082 473.178741,137.913422 471.824341,138.817596 
	C466.093170,142.643723 459.629425,144.934082 453.211792,147.239319 
	C444.265717,150.452820 435.042389,152.720352 425.616547,153.916275 
	C422.432159,154.320297 420.924194,155.682831 420.154938,158.629898 
	C419.442352,161.359802 418.315918,163.979691 417.427826,166.666580 
	C416.949402,168.114105 416.805023,169.238541 418.358856,170.552689 
	C421.552216,173.253525 420.307098,179.894760 416.194336,180.926453 
	C412.918488,181.748199 412.096161,183.814392 411.085358,186.285400 
	C407.870087,194.145477 404.510193,201.947830 401.402405,209.849670 
	C400.267853,212.734375 398.580170,214.564728 395.532532,215.318069 
	C390.875244,216.469299 386.695801,219.166916 381.832458,219.788040 
	C380.330963,217.867340 381.636292,216.166580 382.117889,214.563385 
	C385.564331,203.090973 389.696228,191.785843 392.406158,180.147202 
	C393.749847,174.376297 396.633759,169.355530 398.092926,163.728607 
	C399.034912,160.096115 397.831329,159.097366 394.525940,159.410263 
	C376.976227,161.071426 359.428497,162.753448 341.875397,164.377808 
	C339.585632,164.589706 338.245911,165.805038 337.381592,167.780243 
	C336.380096,170.068893 335.400940,172.368057 334.355713,174.636703 
	C331.084686,181.736343 327.772095,183.876938 318.859802,184.397720 
	C319.669678,177.688339 323.184906,171.833237 324.344727,164.787628 
	C320.817047,166.262802 319.051636,163.807495 316.949860,161.887619 
	C298.566406,145.095047 276.870880,135.285202 252.360825,131.588425 
	C247.939865,130.921631 243.419250,130.891281 238.939835,130.659912 
	C238.172348,130.620270 237.380646,131.049667 236.063782,131.408569 
	C239.120224,134.095276 242.345734,134.394226 245.578461,134.190582 
	C248.863815,133.983643 251.625443,134.242966 252.426361,138.153168 
	C252.692062,139.450348 253.690582,140.127869 254.816971,140.482407 
	C258.129608,141.525085 260.982819,142.633148 260.523468,147.166977 
	C260.341156,148.966324 262.408539,149.585541 264.249176,149.675232 
	C265.977875,149.759476 268.043915,149.342163 268.807220,151.855179 
	C267.787689,153.980682 265.410126,153.559235 263.729706,154.374649 
	C260.494751,155.944397 258.135956,157.949097 258.103027,161.852173 
	C258.084991,163.991150 256.882660,165.241821 254.871658,165.719971 
	C239.483124,169.378906 224.526794,174.436096 209.803070,179.992905 
	C206.594849,176.759033 207.624954,172.607330 209.193527,170.497131 
	C213.506058,164.695435 212.067566,158.004059 213.493820,151.813980 
	C214.301041,148.310623 212.281662,145.685165 209.814377,143.566940 
	C207.216965,141.337021 202.679031,141.624466 201.831467,136.934509 
	C201.626694,135.801422 199.460312,136.621017 198.197449,136.993301 
	C196.118668,137.606094 194.060272,138.254730 192.111679,139.753067 
	C191.700836,146.634262 195.851578,152.235672 198.016266,158.399048 
	C199.235123,161.869415 200.345673,164.935425 195.922394,166.498047 
	C193.700165,167.283112 196.220428,169.543167 194.149765,170.085129 
	C188.130859,169.238327 186.535980,166.574173 188.389160,160.671906 
	C189.090805,158.437225 190.773605,156.101334 188.459351,153.691330 
	C184.598633,149.670883 182.104767,149.930740 179.380386,154.802200 
	C178.649384,156.109329 177.965744,157.444733 177.305283,158.789230 
	C175.645844,162.167358 173.384811,162.403046 171.223083,159.529800 
	C167.940903,155.167328 165.386230,158.874588 162.691391,160.089813 
	C159.611618,161.478622 159.838959,164.166031 161.299896,166.412827 
	C164.066345,170.667404 167.443680,174.519714 169.065460,179.503998 
	C173.435867,178.158249 174.749283,175.134903 175.951462,172.009216 
	C176.943161,169.430740 177.406067,165.780823 181.164352,166.522781 
	C184.319702,167.145721 186.883926,169.346497 186.497009,173.281952 
	C186.296890,175.317368 187.091507,176.627930 189.181046,176.624985 
	C194.708267,176.617203 192.736389,181.163849 193.720459,183.912033 
	C194.854568,187.079178 192.446991,187.960327 190.379349,189.052338 
	C177.204514,196.010605 164.140762,203.153305 151.755936,212.343872 
	C149.956223,207.157761 144.684448,207.232452 140.804749,205.077209 
	C138.638321,203.873734 136.829666,205.033844 135.601471,206.719986 
	C133.804642,209.186737 132.336487,212.021729 133.876251,215.066757 
	C134.951294,217.192795 137.183350,216.967392 139.209076,216.347473 
	C140.206665,216.042191 141.139954,215.938599 142.583740,216.953308 
	C141.120438,220.394424 139.291306,223.396240 135.367188,225.273132 
	C132.654694,219.795670 126.922562,217.938202 123.061523,213.637863 
	C115.424675,225.384735 120.271484,240.513443 112.299545,251.724442 
	C111.813599,251.661575 111.327652,251.598694 110.841705,251.535828 
	C110.841705,246.741959 110.314102,241.880035 110.922302,237.164612 
	C117.971016,182.515381 154.578873,139.818848 208.863922,127.829842 
	C245.795334,119.673431 279.474945,127.747856 310.359589,148.969391 
	C314.057220,151.510101 316.310364,155.194733 318.777283,159.173035 
z"/>
<path fill="white" opacity="1.000000" stroke="none" 
	d="
M219.129181,180.968231 
	C247.911713,170.730637 277.013184,164.308594 307.176575,163.584763 
	C307.264526,164.024979 307.352509,164.465195 307.440460,164.905411 
	C301.822845,166.042511 296.187622,167.099564 290.590332,168.329315 
	C243.621552,178.648621 199.558868,195.871826 160.104233,223.811127 
	C141.529419,236.964676 124.551422,251.818893 111.831955,271.035126 
	C105.740768,280.237488 101.653938,290.217621 100.576019,301.125732 
	C99.377281,313.256348 104.611420,322.722595 114.445564,329.756775 
	C116.293320,331.078461 118.643127,331.737732 120.211540,334.078766 
	C118.125961,334.908997 116.589554,333.927002 115.077774,333.170837 
	C97.033470,324.144867 92.174881,309.855438 95.205986,291.699829 
	C98.919189,269.458588 112.143715,252.616409 127.683769,237.367462 
	C153.782364,211.757706 184.616379,193.728790 219.129181,180.968231 
z"/>
<path fill="white" opacity="1.000000" stroke="none" 
	d="
M99.162529,137.981018 
	C94.846527,130.725281 90.747093,123.668114 86.320091,116.822807 
	C82.386261,110.740074 82.418884,109.917480 88.710831,105.660553 
	C90.479385,106.259964 91.001915,107.976685 91.831505,109.358406 
	C98.002197,119.636024 104.015366,130.010101 110.317886,140.205612 
	C112.340240,143.477142 112.682289,145.845276 109.897438,149.011826 
	C107.011185,152.293686 104.418602,152.504623 100.791916,150.666122 
	C96.683952,148.583603 92.362228,146.922760 86.712334,144.458832 
	C90.341568,150.562759 93.107742,155.400543 96.071045,160.114395 
	C97.389938,162.212387 97.184662,163.940536 95.391769,165.379074 
	C93.338631,167.026474 92.273651,171.219299 88.880608,169.688431 
	C75.717094,163.749344 62.742508,157.391541 49.760532,151.219543 
	C52.225925,144.051849 54.488266,143.231491 60.506790,146.292114 
	C68.498360,150.356125 76.621384,154.161621 85.047531,157.699768 
	C79.238457,148.804443 76.767853,137.193695 64.347694,134.333084 
	C67.651672,126.322739 69.240074,125.844620 76.094902,129.327438 
	C82.473610,132.568344 89.003609,135.520279 95.546638,138.419724 
	C96.558167,138.867966 98.130066,140.611755 99.162529,137.981018 
z"/>
<path fill="white" opacity="1.000000" stroke="none" 
	d="
M288.452942,389.792084 
	C291.132538,401.512817 293.778778,412.821320 296.259064,424.166107 
	C296.736298,426.349030 298.986053,429.364532 295.508972,430.681671 
	C292.128998,431.962036 288.353363,433.959961 284.877228,430.308411 
	C279.485474,424.644806 274.004486,419.065033 268.494598,413.515961 
	C267.377319,412.390778 266.554352,410.801025 264.080780,410.330627 
	C266.140198,419.140320 268.121796,427.617218 270.077057,435.981384 
	C262.707581,439.844391 261.350342,439.143890 259.744263,431.810974 
	C257.506714,421.594879 254.959381,411.446930 252.662918,401.243195 
	C252.171494,399.059662 250.094284,396.088348 253.633667,394.870605 
	C257.003876,393.711029 260.604523,391.428528 264.152100,395.243683 
	C269.702301,401.212463 275.534180,406.919708 281.267395,412.717377 
	C282.054413,413.513275 282.959930,414.192047 284.945801,415.903290 
	C282.938721,407.230682 281.331299,399.886078 279.501221,392.597382 
	C278.873413,390.097046 279.554047,388.570435 281.985901,388.274139 
	C284.140778,388.011597 287.026367,384.721985 288.452942,389.792084 
z"/>
<path fill="white" opacity="1.000000" stroke="none" 
	d="
M331.023773,366.244537 
	C334.322906,363.668884 335.841217,365.052734 337.319397,368.021362 
	C342.363251,378.150513 347.704010,388.132202 352.709839,398.279510 
	C353.650269,400.185913 356.907043,402.549774 353.687531,404.684082 
	C350.592834,406.735687 347.446014,409.874329 342.892670,406.865631 
	C336.370087,402.555786 329.583496,398.644714 322.893738,394.589600 
	C321.773865,393.910767 320.573639,393.364532 318.817505,392.447266 
	C319.515472,397.347015 322.291382,400.696106 324.064972,404.442139 
	C325.344635,407.144989 326.768036,409.808441 328.408447,412.304718 
	C330.527313,415.529144 330.068634,417.430908 326.466614,419.280426 
	C322.783569,421.171478 321.459229,419.603088 320.139740,416.567688 
	C315.753754,406.477661 310.088287,397.043610 305.023163,387.300995 
	C304.001221,385.335266 300.959991,382.865540 303.691895,380.801270 
	C306.742645,378.496063 309.981445,375.300415 314.800537,378.529480 
	C321.705353,383.156158 329.006866,387.191437 336.148865,391.462738 
	C336.993744,391.967957 337.900635,392.369415 339.966888,393.427368 
	C335.961578,385.765656 332.557648,379.072083 328.970184,372.478394 
	C327.457764,369.698639 327.844879,367.786774 331.023773,366.244537 
z"/>
<path fill="white" opacity="1.000000" stroke="none" 
	d="
M339.802582,80.488968 
	C340.030518,88.919540 337.015320,95.794144 331.992676,101.841820 
	C327.171753,107.646599 320.691528,109.335648 313.561646,108.125595 
	C307.302979,107.063377 301.679871,103.984192 295.915222,101.434860 
	C293.972656,100.575783 293.860474,99.231201 294.603821,97.361359 
	C299.264557,85.637985 303.877686,73.895218 308.414856,62.123531 
	C309.388855,59.596611 310.714111,58.803688 313.327850,59.873592 
	C318.242950,61.885525 323.302917,63.550323 328.183685,65.637627 
	C334.545288,68.358208 338.805298,72.927185 339.802582,80.488968 
M328.452087,77.199753 
	C326.634949,73.540077 323.090668,72.501091 319.628571,71.219826 
	C317.239929,70.335831 315.935150,70.938004 315.004578,73.285088 
	C312.428009,79.783409 309.702789,86.222672 307.068329,92.698296 
	C306.509460,94.072067 305.874939,95.446487 307.126068,96.886383 
	C310.096069,100.304375 318.562958,101.450073 321.780090,98.165070 
	C327.195496,92.635445 330.369354,86.015060 328.452087,77.199753 
z"/>
<path fill="white" opacity="1.000000" stroke="none" 
	d="
M385.818878,333.187531 
	C376.537354,326.302277 377.417572,327.805695 383.471954,319.567719 
	C385.145752,317.290253 386.878296,315.051880 388.668854,312.865112 
	C392.126740,308.642029 396.399323,305.664185 402.060455,306.947815 
	C407.995850,308.293671 412.426971,312.073029 413.333923,318.264618 
	C414.132050,323.713135 416.738190,325.271484 421.853546,324.951996 
	C425.269714,324.738678 428.746887,325.501221 432.137634,325.821442 
	C432.325958,333.210266 429.414032,336.044128 422.774445,335.171234 
	C419.815277,334.782227 416.882507,334.168274 413.954407,333.574341 
	C411.578125,333.092407 410.075592,334.290405 409.066376,336.149414 
	C407.895447,338.306274 410.028687,338.976990 411.128174,340.054169 
	C411.718842,340.632843 412.415222,341.105927 413.077301,341.609009 
	C420.406982,347.178375 420.410217,347.417664 412.758453,353.998962 
	C404.257172,346.762146 395.171509,340.095306 385.818878,333.187531 
M402.872681,319.611328 
	C398.279053,316.636078 395.229980,316.958527 392.638733,320.605682 
	C389.480896,325.050232 393.852264,326.194733 395.976593,328.316620 
	C396.441681,328.781189 396.986267,329.189453 397.552856,329.524628 
	C399.022797,330.394257 400.300049,332.428467 402.318115,330.839233 
	C404.316254,329.265717 405.849670,327.303375 405.578522,324.499756 
	C405.411011,322.767731 404.478241,321.407562 402.872681,319.611328 
z"/>
<path fill="white" opacity="1.000000" stroke="none" 
	d="
M251.587952,51.848919 
	C251.829224,49.560375 252.888565,48.750954 254.689240,48.970028 
	C260.299530,49.652592 265.945923,50.145737 271.501129,51.142551 
	C276.793243,52.092163 280.750336,55.058475 281.929504,60.613297 
	C283.174500,66.478020 281.537048,71.851753 276.847809,75.389534 
	C273.222870,78.124397 273.397339,80.378616 275.451935,83.662506 
	C277.215546,86.481384 278.701660,89.476105 280.265869,92.416824 
	C281.430054,94.605507 280.676880,95.753082 278.287903,96.299797 
	C272.488159,97.627052 270.801025,96.834587 268.329834,91.171227 
	C267.198090,88.577484 266.044312,85.982826 265.118286,83.313057 
	C264.336945,81.060349 262.916809,80.157402 260.610168,80.262947 
	C258.246033,80.371109 258.182373,82.202797 257.896484,83.796753 
	C257.603790,85.428406 257.523346,87.097069 257.312500,88.744728 
	C257.071564,90.627388 257.914520,93.115623 255.420883,93.931076 
	C252.959137,94.736099 250.482651,93.720871 248.123688,92.931480 
	C247.010742,92.559052 246.902344,91.440399 247.095200,90.403564 
	C249.439926,77.797028 249.753433,64.955444 251.587952,51.848919 
M261.503479,58.959564 
	C259.596527,61.210396 260.637177,64.068321 259.954559,66.582611 
	C259.504120,68.241814 258.430298,70.375870 260.674255,71.406456 
	C262.711151,72.341949 264.998291,73.098732 267.291718,71.650070 
	C270.588379,69.567719 272.232056,66.437996 271.317719,62.830009 
	C270.136902,58.170712 266.248810,57.780354 261.503479,58.959564 
z"/>
<path fill="white" opacity="1.000000" stroke="none" 
	d="
M228.287476,401.871216 
	C232.115112,414.932220 235.853333,427.601196 239.591919,440.271393 
	C231.421097,442.521088 230.230957,441.973969 228.319199,435.032349 
	C227.585831,432.369446 226.292496,431.050568 223.430969,431.311432 
	C221.618240,431.476715 219.750641,431.515076 217.952652,431.274323 
	C213.278320,430.648438 210.928757,432.421417 210.237503,437.240448 
	C209.605469,441.646729 206.880814,442.328674 200.449066,440.275818 
	C199.647278,438.546661 200.684158,437.057373 201.206223,435.545410 
	C205.162827,424.086670 209.334595,412.698883 213.078995,401.171967 
	C214.432114,397.006531 216.897034,396.016876 220.866776,395.985291 
	C224.978485,395.952576 227.602722,397.170074 228.287476,401.871216 
M219.550247,409.140045 
	C218.218765,413.441864 215.909180,417.484528 215.729202,422.185974 
	C218.756058,423.370239 221.404633,423.511902 224.594147,421.950226 
	C223.084610,417.497345 223.377579,412.529633 219.550247,409.140045 
z"/>
<path fill="white" opacity="1.000000" stroke="none" 
	d="
M231.050919,93.246880 
	C225.985031,95.049187 223.051300,93.754791 221.939362,88.658714 
	C221.351547,85.964706 219.352524,84.970871 216.642822,85.390503 
	C214.510651,85.720695 212.382004,86.134621 210.235550,86.298401 
	C206.211792,86.605438 204.361877,88.594856 204.283142,92.701538 
	C204.207581,96.643066 200.821533,98.917274 196.947449,98.183266 
	C194.567886,97.732422 194.623459,96.112953 194.924973,94.421478 
	C197.221893,81.536476 199.613419,68.668190 201.870499,55.776321 
	C202.793777,50.502682 207.318527,51.899151 210.512222,50.929306 
	C213.203186,50.112133 214.730240,51.568356 215.883133,54.028019 
	C221.171219,65.310043 226.657013,76.499481 231.930923,87.787987 
	C232.711868,89.459541 234.751007,91.679382 231.050919,93.246880 
M215.696060,76.986649 
	C215.544067,71.691566 212.393158,67.742043 209.796265,62.153278 
	C209.067245,65.817398 208.600281,68.073639 208.171204,70.337074 
	C206.504990,79.126541 206.509476,79.127388 215.696060,76.986649 
z"/>
<path fill="white" opacity="1.000000" stroke="none" 
	d="
M374.752563,386.240112 
	C367.228516,376.435699 359.094574,367.618591 351.122864,358.671600 
	C348.479645,355.705017 348.053070,353.729797 351.548828,351.061462 
	C356.701996,347.127960 361.491638,342.716675 366.414703,338.484009 
	C368.376526,336.797241 370.126190,335.718475 372.185120,338.535370 
	C373.981567,340.993073 374.905975,342.969910 371.857422,345.213135 
	C368.915771,347.377686 366.254547,349.919861 363.422760,352.238251 
	C360.585541,354.561096 362.746796,356.304169 364.059052,358.116058 
	C365.432770,360.012909 367.002838,361.477600 369.396973,359.505676 
	C371.452209,357.812927 373.521881,356.133026 375.501099,354.353912 
	C377.524933,352.534760 379.273438,352.469208 380.882568,354.833832 
	C382.211151,356.786224 383.871094,358.680847 381.033081,360.767181 
	C379.559570,361.850403 378.157410,363.034637 376.761780,364.218903 
	C374.232330,366.365234 372.017059,368.254761 375.301056,371.902283 
	C378.322845,375.258514 380.618683,375.062073 383.539978,372.115845 
	C385.762543,369.874298 388.247986,367.895050 390.583801,365.763367 
	C392.138275,364.344818 393.744354,363.587463 395.126282,365.789032 
	C396.250153,367.579559 399.182800,369.388977 396.585297,371.738434 
	C390.663574,377.094696 384.479340,382.161926 378.367126,387.305359 
	C376.995850,388.459259 375.915039,387.627167 374.752563,386.240112 
z"/>
<path fill="white" opacity="1.000000" stroke="none" 
	d="
M149.781250,403.606750 
	C142.700455,412.489258 134.240570,410.863983 125.426460,407.294281 
	C123.136963,409.907990 122.326126,413.005432 121.368965,415.923309 
	C120.021645,420.030548 117.582718,419.202545 114.749657,417.922485 
	C112.157639,416.751373 109.951439,415.762604 111.816223,412.100861 
	C117.333580,401.266815 121.449883,389.819305 125.959648,378.551392 
	C127.264259,375.291748 128.735153,374.580841 131.894424,376.200592 
	C135.286682,377.939850 138.962570,379.115997 142.458191,380.665375 
	C153.874451,385.725311 156.056992,392.337799 149.781250,403.606750 
M139.335907,388.202545 
	C135.766464,385.701569 133.307114,386.283539 131.974121,390.673370 
	C131.400787,392.561493 130.424133,394.324432 129.677307,396.163147 
	C128.507782,399.042450 129.949402,400.619751 132.534454,401.358276 
	C135.983475,402.343597 138.756195,401.142975 140.679092,398.193115 
	C142.856659,394.852600 143.770599,391.510834 139.335907,388.202545 
z"/>
<path fill="white" opacity="1.000000" stroke="none" 
	d="
M163.441055,62.412956 
	C168.622314,60.734268 171.395599,63.795364 170.218796,69.905296 
	C168.932053,76.586029 167.180496,83.176460 165.675613,89.816238 
	C164.806763,93.649757 164.024948,97.503006 163.044205,102.095398 
	C168.870453,100.322197 173.630951,98.151283 178.302017,95.748367 
	C180.426056,94.655701 182.606613,93.264732 183.789352,96.873337 
	C184.687927,99.614891 185.800995,102.081741 181.706924,103.605095 
	C174.387970,106.328392 167.266037,109.576965 160.013351,112.485321 
	C158.152893,113.231384 156.053497,115.453362 154.150574,113.324791 
	C152.418518,111.387344 151.418762,108.873169 152.132767,105.934494 
	C154.483978,96.257629 156.682739,86.543762 158.955063,76.847626 
	C159.176453,75.902847 159.685257,74.986320 158.896118,73.639732 
	C153.879425,74.748909 149.385712,77.156998 144.786270,79.308647 
	C142.973938,80.156471 140.835770,82.090355 139.672607,78.482315 
	C138.807678,75.799438 137.358871,73.145241 141.442657,71.539177 
	C148.713043,68.679878 155.883133,65.565514 163.441055,62.412956 
z"/>
<path fill="white" opacity="1.000000" stroke="none" 
	d="
M60.430969,195.593079 
	C62.108234,189.064575 64.026634,183.042587 66.558655,177.239151 
	C67.198853,175.771790 67.147980,172.865845 69.794579,173.882019 
	C72.562439,174.944748 70.909882,177.280014 70.240578,179.003510 
	C67.285202,186.613861 64.766945,194.352661 63.022842,202.333771 
	C50.159756,261.195892 63.102131,313.745239 101.674522,359.984253 
	C106.046120,365.224701 110.642036,370.280853 115.845253,374.748169 
	C117.166817,375.882812 119.295082,377.262634 117.577156,379.207977 
	C115.692223,381.342438 114.313553,378.902069 113.142540,377.818115 
	C84.277206,351.098877 65.402802,318.560486 57.787918,279.961975 
	C52.252220,251.902496 52.811199,223.776855 60.430969,195.593079 
z"/>
<path fill="white" opacity="1.000000" stroke="none" 
	d="
M167.395325,398.575867 
	C168.051071,395.613373 168.595596,393.056396 169.140182,390.499237 
	C172.824738,390.422028 175.883011,390.715271 178.849091,392.722931 
	C177.187134,404.178589 173.112213,415.182007 171.915909,426.825989 
	C175.478470,428.585632 179.177460,428.783234 182.684814,429.649658 
	C184.688095,430.144562 186.335892,430.803864 185.583496,433.262207 
	C184.895645,435.509674 184.881195,438.798096 181.238358,438.153839 
	C175.024750,437.054932 168.880661,435.568359 162.691391,434.324127 
	C159.623611,433.707428 160.346832,431.588165 160.749985,429.667480 
	C162.898209,419.432526 165.100540,409.208923 167.395325,398.575867 
z"/>
<path fill="white" opacity="1.000000" stroke="none" 
	d="
M118.377396,87.911697 
	C124.861282,97.574417 131.056610,107.020203 137.432053,116.342812 
	C142.481171,123.725960 142.486847,123.964798 133.458618,128.070572 
	C125.229416,116.073112 116.950127,104.002617 108.383743,91.513573 
	C112.117599,90.078827 113.511322,85.137329 118.377396,87.911697 
z"/>
<path fill="white" opacity="1.000000" stroke="none" 
	d="
M410.274017,280.312927 
	C413.235565,265.852966 414.403442,251.663483 413.815857,237.325363 
	C413.754211,235.821487 413.159943,233.575928 415.768494,233.590210 
	C417.834137,233.601486 417.788452,235.584976 417.840393,236.990677 
	C418.613831,257.910248 416.298004,278.436279 409.799194,298.405304 
	C409.556244,299.151917 409.011230,299.800201 408.631653,300.451813 
	C405.329926,300.163605 405.658295,298.288330 406.219391,296.155914 
	C407.570862,291.019714 408.839020,285.861572 410.274017,280.312927 
z"/>
<path fill="white" opacity="1.000000" stroke="none" 
	d="
M260.756775,334.779053 
	C259.174835,327.852966 262.874359,324.229889 271.990448,323.266846 
	C272.050568,328.008057 265.372040,335.171753 260.756775,334.779053 
z"/>
<path fill="white" opacity="1.000000" stroke="none" 
	d="
M248.550278,189.466644 
	C251.409012,189.684219 253.452911,190.883408 252.940598,193.404892 
	C252.273254,196.689529 249.205643,195.058029 247.190689,195.148575 
	C245.242157,195.236145 242.803299,194.711548 242.936554,192.168396 
	C243.105713,188.939789 245.840103,189.279770 248.550278,189.466644 
z"/>
</svg>